<svg id="Layer_1" data-name="Layer 1" xmlns="http://www.w3.org/2000/svg" viewBox="0 0 422.32 284.49"><defs><style>.cls-1{fill-opacity:0;stroke:#439677;stroke-width:18px;}.cls-2{isolation:isolate;}.cls-3{fill:#439677;}</style></defs><title>logo</title><path id="a9G7vqEEK" class="cls-1" d="M123,214.92H527.3V481.41H123Z" transform="translate(-113.98 -205.92)"/><g id="b1eF3oznsx"><g id="barTPOVDJ" class="cls-2"><g class="cls-2"><path class="cls-3" d="M146.24,392.2l10-11.53c9.5,9.85,22.69,16.35,36.4,16.35,17.31,0,27.58-8.63,27.58-21.44,0-13.47-9.56-17.77-22-23.21L179.3,344c-12.29-5.24-26.71-14.56-26.71-34,0-20.15,17.56-35,41.53-35A54.45,54.45,0,0,1,233,291.38l-8.9,10.78c-8.08-7.63-17.75-12.37-29.94-12.37-14.8,0-24.6,7.46-24.6,19.26,0,12.71,11.5,17.46,21.84,21.83l18.8,8.14c15.27,6.56,27.18,15.65,27.18,35.27,0,20.84-17.22,37.49-45,37.49A63.27,63.27,0,0,1,146.24,392.2Z" transform="translate(-113.98 -205.92)"/><path class="cls-3" d="M249.66,277.44H267l13.84,71.82c2.55,14.18,5.17,28.36,7.72,42.53h.81c2.92-14.17,6.09-28.42,9.27-42.53l18.3-71.82h15.23l18.3,71.82c3.18,14,6.35,28.28,9.52,42.53h.81c2.55-14.25,4.92-28.5,7.47-42.53l13.84-71.82h16.2L371,409.37H350.82l-20-79.3c-2.26-10.31-4.38-19.89-6.35-30.05h-.8c-2,10.16-4.34,19.74-6.6,30.05l-19.56,79.3h-19.9Z" transform="translate(-113.98 -205.92)"/><path class="cls-3" d="M421.12,277.44h76v14.21H437.91V333h50V347.2h-50v48h61.26v14.21H421.12Z" transform="translate(-113.98 -205.92)"/></g></g></g></svg>